<svg width="64" height="64" viewBox="0 0 64 64" fill="none" xmlns="http://www.w3.org/2000/svg">
<rect width="64" height="64" rx="32" fill="url(#paint0_linear_727_1986)"/>
<path d="M42.6144 19.2114C42.4952 19.1172 42.3557 19.0517 42.207 19.0202C42.0583 18.9887 41.9043 18.992 41.757 19.0298L25.757 23.0298C25.5406 23.0837 25.3485 23.2085 25.2112 23.3842C25.0739 23.5599 24.9992 23.7765 24.9992 23.9995V37.7615C24.1653 37.2046 23.1692 36.9424 22.1692 37.0165C21.1692 37.0906 20.2227 37.4967 19.4799 38.1704C18.7372 38.8441 18.2409 39.7466 18.0698 40.7346C17.8988 41.7227 18.0628 42.7395 18.5359 43.6237C19.0089 44.5078 19.7638 45.2085 20.6807 45.6145C21.5976 46.0204 22.6239 46.1083 23.5964 45.8642C24.569 45.6201 25.4321 45.058 26.0486 44.2672C26.6651 43.4764 26.9997 42.5022 26.9992 41.4995V29.7798L40.9992 26.2798V33.7615C40.1653 33.2046 39.1692 32.9424 38.1692 33.0165C37.1692 33.0906 36.2227 33.4967 35.4799 34.1704C34.7372 34.8441 34.2409 35.7466 34.0698 36.7346C33.8988 37.7227 34.0628 38.7395 34.5359 39.6237C35.0089 40.5078 35.7638 41.2085 36.6807 41.6145C37.5976 42.0204 38.6239 42.1083 39.5964 41.8642C40.569 41.6201 41.4321 41.058 42.0486 40.2672C42.6651 39.4764 42.9997 38.5022 42.9992 37.4995V19.9995C42.999 19.8476 42.9643 19.6977 42.8976 19.5611C42.831 19.4246 42.7341 19.305 42.6144 19.2114Z" fill="white"/>
<defs>
<linearGradient id="paint0_linear_727_1986" x1="-4.00543e-07" y1="38.4" x2="64" y2="38.4" gradientUnits="userSpaceOnUse">
<stop stop-color="#3D8BFD"/>
<stop offset="1" stop-color="#8C68CD"/>
</linearGradient>
</defs>
</svg>
