<svg width="64" height="64" viewBox="0 0 64 64" fill="none" xmlns="http://www.w3.org/2000/svg">
<rect width="64" height="64" rx="32" fill="url(#paint0_linear_727_1980)"/>
<path d="M38.0029 20C36.8388 19.998 35.6902 20.2677 34.6486 20.7876C33.607 21.3075 32.7011 22.0634 32.0029 22.9949C31.0574 21.7369 29.7402 20.808 28.2376 20.3398C26.7351 19.8715 25.1234 19.8876 23.6306 20.3858C22.1377 20.884 20.8393 21.839 19.9191 23.1157C18.9989 24.3925 18.5035 25.9262 18.5029 27.5C18.5029 36.4829 30.983 43.575 31.5143 43.8725C31.6636 43.9561 31.8318 44 32.0029 44C32.174 44 32.3423 43.9561 32.4916 43.8725C34.7869 42.5282 36.9412 40.9563 38.9219 39.1808C43.2887 35.2506 45.5029 31.3206 45.5029 27.5C45.5007 25.5116 44.7098 23.6052 43.3037 22.1992C41.8977 20.7932 39.9914 20.0023 38.0029 20Z" fill="white"/>
<defs>
<linearGradient id="paint0_linear_727_1980" x1="-4.00543e-07" y1="38.4" x2="64" y2="38.4" gradientUnits="userSpaceOnUse">
<stop stop-color="#8C68CD"/>
<stop offset="1" stop-color="#DE5C9D"/>
</linearGradient>
</defs>
</svg>
