<svg width="64" height="64" viewBox="0 0 64 64" fill="none" xmlns="http://www.w3.org/2000/svg">
<rect width="64" height="64" rx="32" fill="url(#paint0_linear_727_1992)"/>
<path d="M23.9996 33.5002C23.9996 33.6316 23.9738 33.7616 23.9235 33.8829C23.8733 34.0043 23.7996 34.1145 23.7068 34.2074C23.6139 34.3002 23.5037 34.3739 23.3823 34.4241C23.261 34.4744 23.131 34.5002 22.9996 34.5002H22.9996L17.4994 34.4998C17.3136 34.4997 17.1315 34.448 16.9735 34.3503C16.8156 34.2526 16.6879 34.1128 16.6049 33.9466C16.5219 33.7804 16.4868 33.5944 16.5036 33.4094C16.5204 33.2244 16.5884 33.0477 16.7 32.8992C17.5862 31.7117 18.7683 30.7773 20.1284 30.1891C19.544 29.6549 19.0948 28.9895 18.8179 28.2478C18.541 27.506 18.4442 26.7091 18.5355 25.9227C18.6268 25.1362 18.9036 24.3827 19.3432 23.7241C19.7827 23.0656 20.3724 22.5208 21.0636 22.1348C21.7549 21.7487 22.528 21.5324 23.3192 21.5035C24.1104 21.4747 24.8972 21.6342 25.6147 21.969C26.3322 22.3037 26.9599 22.8041 27.4462 23.4289C27.9325 24.0537 28.2634 24.7851 28.4117 25.5629C28.4501 25.7649 28.4253 25.9738 28.3406 26.1612C28.2559 26.3485 28.1156 26.5053 27.9386 26.61C26.3196 27.5677 25.0875 29.0625 24.4562 30.8345C24.153 31.6905 23.9986 32.5921 23.9996 33.5002ZM47.2996 32.8989C46.4133 31.7114 45.2312 30.777 43.8712 30.1888C44.4556 29.6547 44.9047 28.9893 45.1817 28.2476C45.4586 27.5058 45.5554 26.7089 45.4641 25.9225C45.3727 25.136 45.0959 24.3825 44.6564 23.7239C44.2169 23.0654 43.6272 22.5206 42.936 22.1346C42.2447 21.7485 41.4717 21.5322 40.6805 21.5033C39.8892 21.4745 39.1025 21.634 38.385 21.9687C37.6674 22.3034 37.0397 22.8038 36.5534 23.4286C36.0671 24.0534 35.7362 24.7848 35.5878 25.5625C35.5495 25.7645 35.5743 25.9734 35.659 26.1608C35.7436 26.3481 35.884 26.5049 36.0609 26.6096C37.6799 27.5674 38.9121 29.0622 39.5433 30.8342C39.8465 31.6902 40.001 32.5919 39.9999 33.5C39.9999 33.6313 40.0258 33.7614 40.076 33.8827C40.1263 34.004 40.2 34.1143 40.2928 34.2071C40.3857 34.3 40.496 34.3736 40.6173 34.4239C40.7386 34.4741 40.8687 34.5 41 34.5L46.5001 34.4995C46.6859 34.4995 46.868 34.4477 47.026 34.35C47.184 34.2523 47.3116 34.1125 47.3946 33.9463C47.4776 33.7801 47.5127 33.5941 47.4959 33.4091C47.4791 33.2241 47.4111 33.0474 47.2996 32.8989L47.2996 32.8989ZM35.6451 38.2612C36.6415 37.4991 37.374 36.4438 37.7395 35.2438C38.105 34.0438 38.0853 32.7594 37.6829 31.5712C37.2806 30.383 36.516 29.3508 35.4966 28.6197C34.4772 27.8886 33.2543 27.4954 31.9999 27.4954C30.7454 27.4954 29.5225 27.8886 28.5031 28.6197C27.4837 29.3508 26.7191 30.383 26.3168 31.5712C25.9145 32.7594 25.8947 34.0438 26.2603 35.2438C26.6258 36.4438 27.3583 37.4991 28.3547 38.2612C26.4078 39.1207 24.8305 40.6452 23.9053 42.5618C23.831 42.7142 23.7966 42.8831 23.8056 43.0524C23.8145 43.2218 23.8663 43.3861 23.9562 43.5299C24.0461 43.6737 24.1711 43.7923 24.3194 43.8745C24.4678 43.9568 24.6346 43.9999 24.8042 43.9999H39.1956C39.3652 43.9999 39.532 43.9567 39.6803 43.8745C39.8286 43.7923 39.9536 43.6737 40.0435 43.5299C40.1334 43.3861 40.1852 43.2218 40.1942 43.0524C40.2031 42.8831 40.1688 42.7142 40.0945 42.5618C39.1692 40.6452 37.592 39.1207 35.6451 38.2612Z" fill="white"/>
<defs>
<linearGradient id="paint0_linear_727_1992" x1="-4.00543e-07" y1="38.4" x2="64" y2="38.4" gradientUnits="userSpaceOnUse">
<stop stop-color="#3DD5F3"/>
<stop offset="1" stop-color="#3D8BFD"/>
</linearGradient>
</defs>
</svg>
