<svg width="36" height="36" viewBox="0 0 36 36" fill="none" xmlns="http://www.w3.org/2000/svg">
<rect width="36" height="36" rx="18" fill="#535353"/>
<path d="M12.6304 13H23.3698C23.4667 13 23.5615 13.0281 23.6426 13.081C23.7238 13.1338 23.7879 13.2091 23.8271 13.2977C23.8663 13.3863 23.8789 13.4844 23.8634 13.58C23.8479 13.6756 23.8049 13.7647 23.7398 13.8363L19.6301 18.357C19.5465 18.449 19.5001 18.5689 19.5001 18.6933V22.2324C19.5001 22.3147 19.4798 22.3958 19.4409 22.4683C19.4021 22.5409 19.3459 22.6028 19.2774 22.6484L17.2774 23.9818C17.2021 24.032 17.1146 24.0608 17.0242 24.0652C16.9338 24.0695 16.844 24.0493 16.7642 24.0066C16.6844 23.9639 16.6177 23.9003 16.5712 23.8227C16.5247 23.745 16.5001 23.6562 16.5001 23.5657V18.6933C16.5001 18.5689 16.4537 18.449 16.3701 18.357L12.2604 13.8363C12.1952 13.7647 12.1523 13.6756 12.1368 13.58C12.1213 13.4844 12.1339 13.3863 12.1731 13.2977C12.2123 13.2091 12.2764 13.1338 12.3576 13.081C12.4387 13.0281 12.5335 13 12.6304 13V13Z" stroke="white" stroke-linecap="round" stroke-linejoin="round"/>
</svg>
