<svg width="17" height="16" viewBox="0 0 17 16" fill="none" xmlns="http://www.w3.org/2000/svg">
<path d="M6 10C7.79493 10 9.25 8.54493 9.25 6.75C9.25 4.95507 7.79493 3.5 6 3.5C4.20507 3.5 2.75 4.95507 2.75 6.75C2.75 8.54493 4.20507 10 6 10Z" stroke="white" stroke-miterlimit="10"/>
<path d="M10.2134 3.62107C10.6604 3.49513 11.1292 3.46644 11.5882 3.53693C12.0473 3.60743 12.4859 3.77547 12.8745 4.02975C13.2631 4.28403 13.5927 4.61863 13.8411 5.01102C14.0896 5.40342 14.251 5.84449 14.3146 6.30453C14.3782 6.76457 14.3425 7.2329 14.2098 7.67797C14.0772 8.12304 13.8507 8.53452 13.5457 8.8847C13.2406 9.23487 12.864 9.51561 12.4413 9.70799C12.0187 9.90038 11.5596 9.99996 11.0952 10" stroke="white" stroke-linecap="round" stroke-linejoin="round"/>
<path d="M1.49976 12.3373C2.00734 11.6153 2.68119 11.026 3.46441 10.6192C4.24764 10.2124 5.11724 10 5.99981 10C6.88238 9.99997 7.752 10.2123 8.53525 10.619C9.31851 11.0258 9.9924 11.615 10.5 12.337" stroke="white" stroke-linecap="round" stroke-linejoin="round"/>
<path d="M11.0952 10C11.9779 9.99936 12.8477 10.2114 13.631 10.6182C14.4143 11.025 15.0881 11.6146 15.5952 12.337" stroke="white" stroke-linecap="round" stroke-linejoin="round"/>
</svg>
