<svg width="17" height="16" viewBox="0 0 17 16" fill="none" xmlns="http://www.w3.org/2000/svg">
<path d="M10 7H12.5" stroke="#B3B3B3" stroke-linecap="round" stroke-linejoin="round"/>
<path d="M10 9H12.5" stroke="#B3B3B3" stroke-linecap="round" stroke-linejoin="round"/>
<path d="M6.25635 9C7.08477 9 7.75635 8.32843 7.75635 7.5C7.75635 6.67157 7.08477 6 6.25635 6C5.42792 6 4.75635 6.67157 4.75635 7.5C4.75635 8.32843 5.42792 9 6.25635 9Z" stroke="#B3B3B3" stroke-linecap="round" stroke-linejoin="round"/>
<path d="M4.31934 10.5C4.43031 10.0706 4.68077 9.69036 5.03136 9.41886C5.38196 9.14735 5.81282 9.00002 6.25625 9C6.69968 8.99998 7.13055 9.14729 7.48117 9.41877C7.83178 9.69025 8.08227 10.0705 8.19327 10.4998" stroke="#B3B3B3" stroke-linecap="round" stroke-linejoin="round"/>
<path d="M14 3H3C2.72386 3 2.5 3.22386 2.5 3.5V12.5C2.5 12.7761 2.72386 13 3 13H14C14.2761 13 14.5 12.7761 14.5 12.5V3.5C14.5 3.22386 14.2761 3 14 3Z" stroke="#B3B3B3" stroke-linecap="round" stroke-linejoin="round"/>
</svg>
