<svg width="16" height="16" viewBox="0 0 16 16" fill="none" xmlns="http://www.w3.org/2000/svg">
<path d="M3.51261 6.49996C3.51178 5.90697 3.62833 5.31967 3.85554 4.77193C4.08275 4.22419 4.41612 3.72683 4.83643 3.30853C5.25675 2.89023 5.75571 2.55926 6.30454 2.33469C6.85336 2.11013 7.44121 1.9964 8.0342 2.00009C10.5086 2.01848 12.4877 4.07517 12.4877 6.55645V6.99996C12.4877 9.23844 12.9561 10.5374 13.3685 11.2473C13.413 11.3232 13.4366 11.4094 13.4371 11.4974C13.4376 11.5853 13.4148 11.6718 13.3712 11.7481C13.3276 11.8244 13.2646 11.8879 13.1886 11.9321C13.1127 11.9763 13.0264 11.9997 12.9384 12H3.0614C2.97348 11.9997 2.88717 11.9763 2.81118 11.9321C2.73519 11.8879 2.67221 11.8244 2.62859 11.748C2.58498 11.6717 2.56227 11.5852 2.56275 11.4973C2.56324 11.4093 2.5869 11.3231 2.63136 11.2472C3.04406 10.5373 3.51261 9.23832 3.51261 6.99996L3.51261 6.49996Z" stroke="white" stroke-linecap="round" stroke-linejoin="round"/>
<path d="M6 12V12.5C6 13.0304 6.21071 13.5391 6.58579 13.9142C6.96086 14.2893 7.46957 14.5 8 14.5C8.53043 14.5 9.03914 14.2893 9.41421 13.9142C9.78929 13.5391 10 13.0304 10 12.5V12" stroke="white" stroke-linecap="round" stroke-linejoin="round"/>
</svg>
