<svg width="16" height="16" viewBox="0 0 16 16" fill="none" xmlns="http://www.w3.org/2000/svg">
<path d="M5.5 4H13.5" stroke="white" stroke-linecap="round" stroke-linejoin="round"/>
<path d="M5.50049 8H13.5001" stroke="white" stroke-linecap="round" stroke-linejoin="round"/>
<path d="M5.50049 12H13.5001" stroke="white" stroke-linecap="round" stroke-linejoin="round"/>
<path d="M3.4375 4C3.4375 4.3797 3.1297 4.6875 2.75 4.6875C2.3703 4.6875 2.0625 4.3797 2.0625 4C2.0625 3.6203 2.3703 3.3125 2.75 3.3125C3.1297 3.3125 3.4375 3.6203 3.4375 4Z" fill="white" stroke="white" stroke-width="0.125"/>
<path d="M3.4375 8C3.4375 8.3797 3.1297 8.6875 2.75 8.6875C2.3703 8.6875 2.0625 8.3797 2.0625 8C2.0625 7.6203 2.3703 7.3125 2.75 7.3125C3.1297 7.3125 3.4375 7.6203 3.4375 8Z" fill="white" stroke="white" stroke-width="0.125"/>
<path d="M3.4375 12C3.4375 12.3797 3.1297 12.6875 2.75 12.6875C2.3703 12.6875 2.0625 12.3797 2.0625 12C2.0625 11.6203 2.3703 11.3125 2.75 11.3125C3.1297 11.3125 3.4375 11.6203 3.4375 12Z" fill="white" stroke="white" stroke-width="0.125"/>
</svg>
