<svg width="13" height="12" viewBox="0 0 13 12" fill="none" xmlns="http://www.w3.org/2000/svg">
<path d="M10.2915 0.75L9.79837 1.32713C10.9912 2.43298 11.7423 4.0078 11.7423 5.7581C11.7423 7.50839 10.9904 9.08321 9.79837 10.1891L10.2908 10.7662C10.9868 10.1308 11.5427 9.35726 11.9231 8.495C12.3034 7.63275 12.4999 6.70069 12.5 5.75826C12.5001 4.81584 12.3037 3.88374 11.9235 3.02143C11.5432 2.15912 10.9874 1.38553 10.2915 0.75ZM8.57301 2.76201L8.0806 3.33914C8.40185 3.65488 8.65699 4.03144 8.83113 4.44685C9.00527 4.86226 9.09493 5.3082 9.09486 5.75863C9.09479 6.20907 9.00499 6.65498 8.83072 7.07033C8.65645 7.48569 8.40119 7.86217 8.07984 8.1778L8.57225 8.75493C9.3589 7.99854 9.85132 6.93656 9.85132 5.75885C9.85132 4.58114 9.35966 3.51841 8.57301 2.76201ZM0.5 3.48891V8.02728H2.62093L6.55116 10.2965V1.21972L2.62093 3.48891H0.5ZM5.79477 2.5298V8.98639L2.82365 7.27089H1.2564V4.2453H2.82365L5.79477 2.5298Z" fill="#B3B3B3"/>
</svg>
