<svg width="13" height="12" viewBox="0 0 13 12" fill="none" xmlns="http://www.w3.org/2000/svg">
<path d="M2.75075 9H10.2508C10.6632 9 11.0008 8.6625 11.0008 8.25V2.25C11.0008 1.8375 10.6632 1.5 10.2508 1.5H2.75075C2.33825 1.5 2.00075 1.8375 2.00075 2.25V8.25C2.00075 8.6625 2.33825 9 2.75075 9ZM2.75075 2.25H10.2508V8.25H2.75075V2.25ZM12.1258 10.5H0.875C0.66875 10.5 0.5 10.6687 0.5 10.875C0.5 11.0813 0.66875 11.25 0.875 11.25H12.1258C12.332 11.25 12.5007 11.0813 12.5007 10.875C12.5007 10.6687 12.332 10.5 12.1258 10.5Z" fill="#B3B3B3"/>
</svg>
