<svg width="13" height="11" viewBox="0 0 13 11" fill="none" xmlns="http://www.w3.org/2000/svg">
<path fill-rule="evenodd" clip-rule="evenodd" d="M1.14 3.64692C0.806975 3.85506 0.375 3.61564 0.375 3.22292V0.652166C0.375 0.259449 0.806976 0.0200275 1.14 0.228168L3.1966 1.51354C3.50994 1.70938 3.50994 2.16571 3.1966 2.36154L1.14 3.64692ZM6.9375 2.37504C6.69588 2.37504 6.5 2.57092 6.5 2.81254C6.5 3.05417 6.69588 3.25004 6.9375 3.25004H12.1875C12.4291 3.25004 12.625 3.05417 12.625 2.81254C12.625 2.57092 12.4291 2.37504 12.1875 2.37504H6.9375ZM0.375 6.31254C0.375 6.07092 0.570875 5.87504 0.8125 5.87504H12.1875C12.4291 5.87504 12.625 6.07092 12.625 6.31254C12.625 6.55417 12.4291 6.75004 12.1875 6.75004H0.8125C0.570875 6.75004 0.375 6.55417 0.375 6.31254ZM0.8125 9.37504C0.570875 9.37504 0.375 9.57092 0.375 9.81254C0.375 10.0542 0.570875 10.25 0.8125 10.25H12.1875C12.4291 10.25 12.625 10.0542 12.625 9.81254C12.625 9.57092 12.4291 9.37504 12.1875 9.37504H0.8125Z" fill="#B3B3B3"/>
</svg>
