<svg width="75" height="37" viewBox="0 0 75 37" fill="none" xmlns="http://www.w3.org/2000/svg">
<path fill-rule="evenodd" clip-rule="evenodd" d="M55.4559 19.6941C55.4426 19.8931 55.4303 20.0911 55.4109 20.2873C55.3994 20.4044 55.3826 20.5196 55.3694 20.6348C55.3482 20.8122 55.3279 20.9886 55.3023 21.1632C55.2838 21.2857 55.2617 21.4072 55.2405 21.5287C55.2123 21.6953 55.1849 21.8618 55.1522 22.0265C55.1275 22.1508 55.0993 22.2732 55.0719 22.3965C55.0366 22.5568 55.0013 22.7161 54.9616 22.8745C54.9307 22.9988 54.8963 23.1212 54.8628 23.2445C54.8204 23.3993 54.778 23.5542 54.7312 23.7081C54.6485 23.9825 54.559 24.2548 54.4629 24.5246C54.3239 24.9131 54.1723 25.2968 54.0084 25.6751C53.8941 25.9344 53.7752 26.1916 53.6518 26.4465C53.5812 26.5897 53.5079 26.7301 53.4347 26.8705C53.3764 26.9804 53.3191 27.0893 53.259 27.1982C53.181 27.3381 53.1013 27.4771 53.0199 27.615C52.9581 27.7194 52.8972 27.8238 52.8336 27.9274C52.748 28.0669 52.6589 28.2037 52.5688 28.3406C52.5044 28.4387 52.4417 28.5377 52.3755 28.634C52.2802 28.7745 52.1805 28.9113 52.0808 29.049C52.0154 29.139 51.9528 29.2291 51.8857 29.3182C51.7763 29.464 51.6624 29.6053 51.5477 29.7476C51.4868 29.8241 51.4276 29.9015 51.3658 29.9771C51.2255 30.1464 51.0799 30.3111 50.9342 30.4758C50.8936 30.52 50.8566 30.5668 50.816 30.6109C50.6262 30.8188 50.4329 31.0223 50.2334 31.2212C50.1981 31.2572 50.1593 31.2914 50.1231 31.3274C49.9608 31.4882 49.7954 31.6458 49.6271 31.8C49.5556 31.8658 49.4815 31.927 49.41 31.9909C49.2723 32.1124 49.1355 32.2339 48.9943 32.351C48.9087 32.4221 48.8213 32.4896 48.7348 32.5589C48.6024 32.6642 48.4709 32.7696 48.3358 32.8722C48.2414 32.9433 48.1452 33.0108 48.0499 33.0801L47.7507 33.2935C47.7789 33.2728 47.8098 33.2557 47.8389 33.2359C47.8054 33.2593 47.771 33.2791 47.7374 33.3025C47.7092 33.3223 47.6818 33.343 47.6536 33.3619C47.5521 33.4312 47.4497 33.4978 47.3473 33.5644C47.1731 33.679 46.9968 33.7904 46.8186 33.8984L46.7568 33.9344C46.7701 33.9272 46.7842 33.92 46.7966 33.9119L46.6121 34.0208C46.4815 34.0983 46.3508 34.1739 46.2184 34.2477L46.0446 34.3413C45.9431 34.3962 45.8398 34.4502 45.7365 34.5034L45.6827 34.5304C45.6033 34.5709 45.5256 34.6123 45.4453 34.6519C45.3376 34.7041 45.2299 34.7563 45.1205 34.8076L45.0322 34.8472C44.9351 34.8922 44.838 34.9363 44.7401 34.9796L44.6977 34.9985C44.6121 35.0363 44.5247 35.0723 44.4382 35.1092C44.2875 35.1728 44.1356 35.2337 43.9828 35.2919C43.8795 35.3315 43.7771 35.3702 43.6739 35.4081L43.5406 35.4576C43.4267 35.4981 43.3111 35.5368 43.1955 35.5746C43.1011 35.6061 43.0066 35.6376 42.9113 35.6673L42.8733 35.679C42.771 35.7114 42.6686 35.742 42.5653 35.7717L42.2705 35.8564C42.1443 35.8906 42.019 35.9257 41.8919 35.9581L41.8274 35.9725L41.6686 36.0121C41.6968 36.0058 41.7233 35.9968 41.7515 35.9905L41.568 36.0328C41.6006 36.0247 41.635 36.0202 41.6686 36.0121C41.5909 36.031 41.5124 36.0454 41.4347 36.0634L41.4232 36.0661C41.297 36.094 41.1717 36.1237 41.0446 36.1489C40.9131 36.175 40.7807 36.1975 40.6483 36.22C40.5706 36.2335 40.4938 36.2506 40.4162 36.2632C40.4523 36.2569 40.4876 36.2479 40.5238 36.2416L40.3323 36.274C40.3605 36.2695 40.3888 36.2677 40.4162 36.2632L40.2864 36.2822L40.1823 36.3002C40.0066 36.3263 39.8292 36.3461 39.6518 36.3677C39.5371 36.3812 39.4223 36.3983 39.3058 36.4091L39.2793 36.4127H39.2626C39.2149 36.4172 39.1655 36.419 39.1178 36.4235C39.0084 36.4334 38.8989 36.4397 38.7895 36.4478C38.4179 36.4748 38.0437 36.4919 37.6659 36.4955C37.6324 36.4955 37.6006 36.5 37.568 36.5H37.4329C37.4011 36.5 37.3711 36.4964 37.3394 36.4955C36.953 36.4913 36.5668 36.4748 36.1814 36.446C36.0763 36.4379 35.9704 36.4316 35.8654 36.4226C35.823 36.4181 35.7798 36.4172 35.7365 36.4127H35.7207C35.4063 36.38 35.0928 36.3386 34.7807 36.2885C34.8257 36.2957 34.8716 36.2993 34.9166 36.3056C34.8045 36.2885 34.6898 36.2786 34.5786 36.2605L34.4197 36.2317C34.462 36.2389 34.5035 36.2506 34.5459 36.2578C34.47 36.2452 34.3959 36.2272 34.3199 36.2137L34.2935 36.2092C34.2467 36.2011 34.2017 36.1894 34.1558 36.1813C33.8569 36.127 33.5594 36.0651 33.2635 35.9959L33.3482 36.013L33.2087 35.9806L33.2635 35.9959C33.1355 35.9653 33.011 35.9266 32.8839 35.8924L32.9042 35.8978C32.891 35.8951 32.8786 35.8906 32.8654 35.887L32.8839 35.8924C32.6271 35.8248 32.3703 35.7573 32.1178 35.679L32.0861 35.67C32.0516 35.6592 32.0181 35.6466 31.9837 35.6349L31.9678 35.6295C31.8257 35.5836 31.6862 35.5305 31.545 35.481L31.7286 35.5449C31.6315 35.5116 31.5353 35.4765 31.4391 35.4414L31.545 35.481C31.3288 35.4053 31.1125 35.3297 30.9007 35.246L30.7939 35.2037C30.7789 35.1974 30.7648 35.1902 30.7498 35.1848C30.6046 35.1251 30.4601 35.0636 30.3164 35.0003C30.4109 35.0417 30.5062 35.0804 30.6006 35.12C30.4603 35.0615 30.3208 34.9994 30.1823 34.9381C30.2273 34.958 30.2714 34.9805 30.3164 35.0003C30.1681 34.9354 30.0181 34.8724 29.8716 34.8031L29.8398 34.7896C29.8204 34.7806 29.8001 34.7725 29.7807 34.7626C29.7109 34.7302 29.6447 34.6906 29.5759 34.6573C29.4347 34.5871 29.2935 34.5187 29.154 34.4457C29.2732 34.5079 29.395 34.5655 29.5159 34.6258C29.3427 34.5397 29.1709 34.4508 29.0004 34.3593C29.0525 34.3872 29.1019 34.4178 29.154 34.4457C29.0366 34.3836 28.9201 34.3224 28.8045 34.2585L28.7621 34.236C28.7189 34.2126 28.6765 34.1865 28.6342 34.1622C28.5786 34.1316 28.5265 34.0965 28.4718 34.0641L28.425 34.037L28.4488 34.0505C28.2573 33.9389 28.0684 33.8255 27.8822 33.7076C27.9378 33.7427 27.9907 33.7823 28.0472 33.8174C27.9563 33.7616 27.868 33.7022 27.7789 33.6455L27.771 33.6401L27.635 33.5527C27.5662 33.5077 27.5009 33.4582 27.4329 33.4123C27.2873 33.3142 27.1381 33.2215 26.9951 33.1188C27.1019 33.1954 27.2158 33.2629 27.3244 33.3367C27.1337 33.2071 26.9413 33.0801 26.756 32.9424L26.7948 32.9721C26.7816 32.9631 26.7692 32.9523 26.756 32.9424C26.583 32.8128 26.4144 32.6777 26.2458 32.5427L26.2379 32.5364L26.2361 32.5355C26.162 32.4752 26.0861 32.4176 26.0119 32.3564L26.011 32.3555L25.9819 32.3303C25.7771 32.1592 25.5741 31.9846 25.3773 31.8045L25.3614 31.791L25.3491 31.7793C25.2767 31.7136 25.2096 31.6443 25.139 31.5768C24.9996 31.4454 24.8601 31.3139 24.7251 31.178L24.7083 31.1618C24.6527 31.106 24.5997 31.0475 24.545 30.9908C24.5891 31.0367 24.6306 31.0853 24.6756 31.1303C24.6306 31.0844 24.5883 31.0358 24.5432 30.989L24.4709 30.9115C24.3482 30.7819 24.2246 30.6541 24.1055 30.5209L24.1037 30.5182C24.0357 30.4425 23.9695 30.3651 23.9034 30.2886L23.8522 30.2283C23.6724 30.019 23.497 29.8059 23.3261 29.5891C23.3085 29.5675 23.2917 29.5441 23.2749 29.5216C23.1089 29.3094 22.9476 29.0933 22.7913 28.8735C22.7718 28.8456 22.7542 28.8168 22.7348 28.7898C22.6356 28.6473 22.5382 28.5036 22.4426 28.3586C22.3941 28.2847 22.3438 28.2109 22.2961 28.1353C22.2741 28.1011 22.2546 28.066 22.2335 28.0318C22.1436 27.8885 22.0559 27.7439 21.9704 27.5979C21.9598 27.5781 21.9475 27.5592 21.936 27.5403C21.9034 27.4854 21.8698 27.4314 21.838 27.3755C21.8142 27.3341 21.793 27.2909 21.7701 27.2486C21.6874 27.0991 21.6068 26.9485 21.5282 26.7967C21.4903 26.7256 21.4506 26.6563 21.4144 26.5843C21.3914 26.5393 21.3711 26.4933 21.3491 26.4483C21.2708 26.2889 21.1955 26.1281 21.1231 25.9658C21.094 25.9037 21.0631 25.8416 21.0349 25.7786L20.989 25.6697C20.9069 25.4824 20.8301 25.2925 20.7551 25.1016L20.6933 24.9495L20.6677 24.8784C20.5806 24.6483 20.4985 24.4163 20.4214 24.1825L20.3914 24.0961L20.3826 24.0682C20.1644 23.3995 19.9858 22.718 19.8477 22.0274L19.8407 21.9914C19.8266 21.9203 19.8169 21.8483 19.8036 21.7781C19.7647 21.5741 19.7294 21.3694 19.6977 21.1641L19.6845 21.0849C19.6703 20.9841 19.6615 20.8815 19.6492 20.7798C19.6245 20.5953 19.6031 20.4104 19.5847 20.2252C19.583 20.2072 19.5794 20.1892 19.5786 20.1703C19.5759 20.146 19.5768 20.1208 19.575 20.0956C19.5264 19.565 19.5014 19.0324 19.5 18.4995C19.5 18.2682 19.5088 18.0377 19.5177 17.8082C19.5229 17.6777 19.5282 17.5471 19.5353 17.4166C19.5459 17.2429 19.56 17.0709 19.575 16.899C19.5653 17.0034 19.5521 17.1078 19.545 17.2132C19.5521 17.1069 19.5662 17.0025 19.575 16.8963C19.5865 16.7667 19.598 16.6379 19.6121 16.5092C19.6315 16.3382 19.6536 16.1671 19.6774 15.997C19.6951 15.8692 19.7127 15.7422 19.733 15.6162V15.6153C19.7604 15.447 19.7913 15.2795 19.823 15.113V15.1112C19.8469 14.9861 19.8707 14.8609 19.8972 14.7367V14.7358C19.9331 14.5702 19.9714 14.4052 20.0119 14.2407C20.041 14.1183 20.0711 13.9949 20.1037 13.8734V13.8716C20.147 13.7096 20.1929 13.5502 20.2405 13.3909L20.2414 13.3873C20.2767 13.2667 20.312 13.1451 20.35 13.0263L20.3508 13.0236C20.4011 12.8661 20.455 12.7103 20.5097 12.5546L20.5115 12.5501C20.553 12.4322 20.5936 12.3143 20.6377 12.1972L20.6386 12.1945C20.6959 12.0406 20.7568 11.8894 20.8177 11.7381L20.8204 11.7318C20.8672 11.6166 20.9139 11.5005 20.9625 11.3861L20.9643 11.3834C21.0304 11.2325 21.0983 11.0825 21.1681 10.9333C21.2202 10.8208 21.2714 10.7074 21.3261 10.5967L21.3279 10.5931C21.3985 10.4481 21.4726 10.3059 21.5477 10.1637L21.5521 10.1547C21.6094 10.0457 21.6659 9.93502 21.7259 9.827L21.7277 9.8234C21.8045 9.68387 21.8857 9.54613 21.966 9.4084L21.9722 9.3985C22.0349 9.29228 22.0966 9.18515 22.1611 9.07983L22.1637 9.07623C22.2467 8.9412 22.3332 8.80887 22.4197 8.67654L22.4267 8.66484C22.4947 8.56221 22.5609 8.45869 22.6306 8.35697L22.6333 8.35247C22.7215 8.22284 22.8142 8.09591 22.906 7.96808L22.9157 7.95548C22.9881 7.85556 23.0587 7.75563 23.1328 7.65751L23.1364 7.65301C23.2299 7.52878 23.3279 7.40725 23.4259 7.28483L23.4365 7.27132C23.5132 7.175 23.5891 7.07868 23.6677 6.98416C23.6686 6.98246 23.6698 6.98093 23.6712 6.97966C23.7701 6.86083 23.8733 6.7438 23.9757 6.62768L23.989 6.61328C24.0702 6.52056 24.1496 6.42783 24.2326 6.33691L24.237 6.33331C24.3411 6.21899 24.4497 6.10826 24.5565 5.99754L24.5715 5.98223C24.6571 5.89401 24.741 5.80489 24.8283 5.71847C24.8298 5.7172 24.831 5.71568 24.8319 5.71397L24.8636 5.68157L24.8336 5.71307C24.9281 5.61945 25.026 5.52943 25.1222 5.43761C25.0428 5.51323 24.9607 5.58614 24.8822 5.66266C24.9748 5.57174 25.0719 5.48442 25.1664 5.3953L25.1831 5.38C25.2732 5.29538 25.3614 5.20986 25.4523 5.12794L25.4568 5.12434C25.5547 5.03522 25.6571 4.9506 25.7577 4.86328C25.673 4.9362 25.5865 5.00551 25.5035 5.08023C25.6024 4.99201 25.7048 4.90829 25.8045 4.82277C25.8108 4.81715 25.8173 4.81175 25.8239 4.80657C25.9166 4.72735 26.0084 4.64633 26.1028 4.56892L26.1072 4.56531L26.1531 4.52661L26.1081 4.56441C26.2105 4.4807 26.3155 4.40058 26.4197 4.31956C26.3314 4.38888 26.2405 4.45549 26.1531 4.52661C26.2564 4.44199 26.3641 4.36187 26.47 4.27995L26.4903 4.26375C26.5874 4.18903 26.6818 4.11341 26.7798 4.0405L26.7833 4.0378L26.8283 4.00359L26.786 4.036C26.8928 3.95678 27.0013 3.88206 27.109 3.80554C27.0163 3.87216 26.9201 3.93517 26.8283 4.00359C26.9369 3.92257 27.0499 3.84695 27.1611 3.76954L27.184 3.75333C27.2829 3.68312 27.3808 3.612 27.4815 3.54448L27.485 3.54178L27.5282 3.51208L27.4894 3.53908C27.5997 3.46527 27.7136 3.39595 27.8248 3.32394C27.7268 3.38695 27.6253 3.44726 27.5282 3.51208C27.643 3.43556 27.7604 3.36444 27.8769 3.29063L27.9025 3.27532C28.004 3.21051 28.1046 3.14389 28.2079 3.08178L28.2114 3.07998C28.2249 3.07075 28.2387 3.06205 28.2529 3.05387L28.2176 3.07638C28.3323 3.00706 28.4497 2.94225 28.5662 2.87563C28.462 2.93505 28.3553 2.99176 28.2529 3.05387C28.372 2.98186 28.4956 2.91524 28.6165 2.84683L28.6447 2.83062C28.7489 2.77211 28.8513 2.7109 28.9563 2.65328L28.9598 2.65148L28.9996 2.62988L28.9678 2.64788C29.0878 2.58307 29.2114 2.52275 29.3323 2.46064C29.222 2.51735 29.109 2.57047 28.9996 2.62988C29.1249 2.56236 29.2529 2.50115 29.3791 2.43634C29.3896 2.43178 29.3999 2.42667 29.41 2.42103C29.5159 2.36792 29.62 2.31211 29.7277 2.2608L29.7304 2.259L29.7683 2.24009L29.741 2.25449C29.8672 2.19418 29.996 2.13837 30.124 2.08076C30.0057 2.13477 29.8857 2.18428 29.7683 2.24009C29.8989 2.17798 30.0322 2.12216 30.1646 2.06275L30.1981 2.04745C30.3049 1.99974 30.4109 1.94933 30.5194 1.90432L30.5221 1.90252C30.534 1.8978 30.5458 1.89269 30.5574 1.88721L30.5344 1.89801C30.6686 1.8413 30.8054 1.79089 30.9413 1.73778C30.8133 1.78729 30.6845 1.835 30.5574 1.88721C30.6933 1.8305 30.8327 1.78009 30.9704 1.72608L31.0084 1.71167C31.1161 1.66936 31.222 1.62525 31.3314 1.58474H31.3332C31.3442 1.58 31.3554 1.5758 31.3667 1.57214L31.3473 1.57934C31.4929 1.52623 31.6421 1.47942 31.7895 1.42991C31.6483 1.47762 31.5062 1.52173 31.3667 1.57214C31.5088 1.52083 31.6536 1.47582 31.7966 1.42721L31.8407 1.41281C31.9484 1.3768 32.0534 1.33809 32.1611 1.30478H32.1628L32.1937 1.29488L32.1787 1.30028C32.3323 1.25257 32.4885 1.21116 32.643 1.16795L32.6192 1.17515L32.6809 1.15715L32.7348 1.14184C32.8266 1.11664 32.9166 1.08873 33.0093 1.06443H33.0101L33.0375 1.05723L33.0287 1.05993C33.1876 1.01942 33.3491 0.985209 33.5097 0.949201L33.4532 0.961804C33.5344 0.9429 33.6147 0.923095 33.6968 0.905991L33.7745 0.887987C33.808 0.880786 33.8407 0.871784 33.8733 0.865482L33.8742 0.864582L33.8981 0.860981L33.8945 0.861881C34.0605 0.827674 34.229 0.800668 34.3976 0.771861L34.3076 0.787165C34.4576 0.761059 34.6059 0.730452 34.756 0.707947L34.7568 0.707047L34.7718 0.705246H34.7754C34.9095 0.684542 35.0463 0.671038 35.1814 0.653034C35.0905 0.664737 34.9978 0.675539 34.9069 0.688142C35.041 0.669238 35.177 0.653034 35.312 0.636831L35.1814 0.653034C35.3376 0.63323 35.4929 0.609825 35.6509 0.593621H35.6518L35.6703 0.591821H35.6712C35.8045 0.578318 35.9395 0.571116 36.0737 0.561214L35.9422 0.571116C36.0534 0.562114 36.1637 0.553112 36.2749 0.54591L36.0737 0.561214C36.2352 0.548611 36.3959 0.532407 36.5583 0.524305H36.5591L36.5794 0.523405C36.7136 0.516204 36.8495 0.516204 36.9837 0.512603L36.9086 0.514403C37.1055 0.508102 37.3014 0.5 37.5 0.5C47.4417 0.5 55.5 8.55771 55.5 18.4995C55.5 18.8011 55.4912 19.1009 55.4771 19.3988C55.4718 19.4979 55.462 19.596 55.4559 19.6941ZM27.0569 24.2572C27.1937 24.8604 27.7966 25.2385 28.4003 25.0998C34.665 23.6685 39.9854 24.2518 44.2114 26.8354C44.741 27.1577 45.432 26.993 45.7551 26.4609C45.8317 26.3353 45.8829 26.1954 45.9057 26.0493C45.9284 25.9032 45.9222 25.7539 45.8875 25.6102C45.8528 25.4666 45.7902 25.3315 45.7035 25.2129C45.6168 25.0944 45.5077 24.9947 45.3826 24.9198C40.6377 22.0193 34.7568 21.3451 27.8998 22.9132C27.7573 22.9438 27.6222 23.003 27.5024 23.0874C27.3826 23.1719 27.2804 23.2798 27.202 23.4049C27.1235 23.53 27.0702 23.6698 27.0453 23.8162C27.0204 23.9625 27.0244 24.1125 27.0569 24.2572ZM26.3385 18.9902C26.5644 19.731 27.3482 20.1487 28.0914 19.9246C33.8142 18.1881 41.1902 19.0487 46.0269 22.0229C46.6862 22.4271 47.5512 22.221 47.9572 21.562C48.0534 21.405 48.1178 21.23 48.1467 21.0472C48.1756 20.8644 48.1684 20.6775 48.1255 20.4976C48.0825 20.3177 48.0048 20.1484 47.8968 19.9996C47.7887 19.8508 47.6526 19.7255 47.4965 19.6311C41.9395 16.2184 33.8133 15.2561 27.2749 17.2402C27.1002 17.2914 26.9372 17.3775 26.7953 17.4935C26.6534 17.6094 26.5355 17.753 26.4484 17.9157C26.3613 18.0785 26.3068 18.2573 26.2879 18.4417C26.269 18.6261 26.2862 18.8126 26.3385 18.9902ZM49.8654 13.561C43.1858 9.59565 32.6165 9.22296 26.2582 11.1539C26.0485 11.2151 25.8528 11.3183 25.6825 11.4574C25.5123 11.5965 25.3708 11.7687 25.2664 11.964C25.162 12.1594 25.0968 12.374 25.0745 12.5953C25.0521 12.8166 25.0732 13.0402 25.1364 13.2532C25.4056 14.1435 26.3455 14.6449 27.2361 14.3748C32.7745 12.6941 42.3447 13.0119 48.1478 16.457C48.5316 16.6855 48.9878 16.7517 49.4188 16.6415C49.8498 16.5313 50.2214 16.2534 50.4541 15.8674C50.5668 15.6773 50.641 15.4661 50.6724 15.2463C50.7037 15.0265 50.6916 14.8025 50.6367 14.5875C50.5819 14.3726 50.4854 14.171 50.3529 13.9947C50.2204 13.8184 50.0547 13.671 49.8654 13.561ZM37.4523 0.5H37.5C37.327 0.5 37.1558 0.508102 36.9837 0.512603C37.1399 0.508102 37.2952 0.5 37.4523 0.5Z" fill="white"/>
</svg>
