<svg width="33" height="32" viewBox="0 0 33 32" fill="none" xmlns="http://www.w3.org/2000/svg">
<path d="M28.5 11V25.1111C28.5 25.3469 28.4063 25.573 28.2397 25.7397C28.073 25.9063 27.8469 26 27.6111 26H5.5C5.23478 26 4.98043 25.8946 4.79289 25.7071C4.60536 25.5196 4.5 25.2652 4.5 25V8C4.5 7.73478 4.60536 7.48043 4.79289 7.29289C4.98043 7.10536 5.23478 7 5.5 7H12.1667C12.383 7 12.5936 7.07018 12.7667 7.2L16.2333 9.8C16.4064 9.92982 16.617 10 16.8333 10H27.5C27.7652 10 28.0196 10.1054 28.2071 10.2929C28.3946 10.4804 28.5 10.7348 28.5 11Z" stroke="white" stroke-linecap="round" stroke-linejoin="round"/>
</svg>
