<svg xmlns="http://www.w3.org/2000/svg" width="16.492" height="14.43" viewBox="0 0 16.492 14.43">
  <path id="Icon_awesome-random" data-name="Icon awesome-random" d="M16.265,12.784a.773.773,0,0,1,0,1.093l-2.577,2.576a.774.774,0,0,1-1.32-.547V14.619H10.475a.387.387,0,0,1-.283-.123L7.92,12.061,9.638,10.22l1.7,1.822h1.031V10.754a.774.774,0,0,1,1.32-.547l2.577,2.576ZM.387,6.888H3.092l1.7,1.822L6.51,6.869,4.238,4.434a.386.386,0,0,0-.283-.123H.387A.387.387,0,0,0,0,4.7V6.5A.387.387,0,0,0,.387,6.888Zm11.982,0V8.176a.774.774,0,0,0,1.32.547l2.577-2.576a.773.773,0,0,0,0-1.093L13.688,2.477a.774.774,0,0,0-1.32.547V4.311H10.475a.387.387,0,0,0-.283.123l-7.1,7.608H.387A.387.387,0,0,0,0,12.428v1.8a.387.387,0,0,0,.387.387H3.955a.387.387,0,0,0,.283-.123l7.1-7.608Z" transform="translate(0 -2.25)" fill="#fff"/>
</svg>
