<svg width="148" height="45" viewBox="0 0 148 45" fill="none" xmlns="http://www.w3.org/2000/svg">
<path fill-rule="evenodd" clip-rule="evenodd" d="M135.505 38.7564C134.108 38.7564 132.979 38.4707 131.729 37.8047C131.672 37.7755 131.628 37.7248 131.607 37.6637C131.587 37.6025 131.59 37.5356 131.618 37.4773L132.817 34.8887C132.832 34.857 132.853 34.8287 132.879 34.8053C132.905 34.7819 132.935 34.764 132.968 34.7526C133.037 34.7323 133.111 34.7391 133.174 34.7717C133.845 35.1339 134.502 35.3162 135.125 35.3162C135.894 35.3162 136.46 35.0676 137.033 33.8143L131.977 21.8871H128.676V33.8154C128.676 33.8839 128.648 33.9493 128.599 33.9973C128.551 34.0454 128.485 34.0722 128.417 34.0719H124.882C124.848 34.0721 124.815 34.0656 124.784 34.0528C124.752 34.04 124.724 34.0211 124.7 33.9973C124.676 33.9735 124.657 33.9451 124.644 33.9139C124.631 33.8827 124.624 33.8493 124.624 33.8154V21.8871H122.927C122.893 21.8874 122.859 21.881 122.828 21.8683C122.797 21.8556 122.768 21.8369 122.744 21.8132C122.72 21.7895 122.701 21.7613 122.688 21.7301C122.675 21.699 122.668 21.6655 122.668 21.6317V18.6291C122.668 18.5608 122.696 18.4957 122.745 18.4479C122.793 18.4001 122.859 18.3734 122.927 18.3737H124.624V17.6368C124.624 14.2168 126.351 12.4078 129.616 12.4078C130.957 12.4078 131.854 12.6193 132.554 12.8241C132.607 12.8396 132.653 12.8716 132.685 12.9154C132.718 12.9591 132.736 13.0123 132.736 13.0671V15.9977C132.736 16.0386 132.727 16.0789 132.708 16.1155C132.69 16.152 132.663 16.1837 132.631 16.2081C132.597 16.2311 132.558 16.2459 132.517 16.2516C132.477 16.2573 132.435 16.2535 132.396 16.2407C131.734 16.0236 131.142 15.8784 130.405 15.8784C129.168 15.8784 128.618 16.5096 128.618 17.9237V18.4052H134.658C134.764 18.4052 134.862 18.4693 134.898 18.5683L139.028 29.1681L142.798 18.5762C142.816 18.5256 142.849 18.4819 142.893 18.4513C142.936 18.4206 142.989 18.4045 143.042 18.4052H146.723C146.809 18.4052 146.887 18.4457 146.936 18.5143C146.959 18.5486 146.974 18.588 146.979 18.6291C146.983 18.6703 146.978 18.7119 146.963 18.7506L140.83 34.3419C139.557 37.5594 138.114 38.7564 135.505 38.7564ZM119.011 16.4679C117.612 16.4679 116.474 15.3519 116.474 13.9738C116.474 12.5946 117.612 11.4797 119.011 11.4797C120.411 11.4797 121.546 12.5946 121.546 13.9738C121.546 15.3519 120.411 16.4679 119.011 16.4679ZM111.175 21.8871V29.0769C111.175 30.2109 111.682 30.7172 112.815 30.7172C113.551 30.7172 114.209 30.5619 114.89 30.2256C114.929 30.206 114.973 30.1968 115.017 30.1987C115.061 30.2007 115.104 30.2138 115.142 30.2368C115.179 30.2593 115.21 30.2912 115.232 30.3292C115.253 30.3673 115.264 30.4102 115.264 30.4539V33.3013C115.264 33.3461 115.251 33.39 115.228 33.4284C115.205 33.4668 115.172 33.4983 115.133 33.5196C114.142 34.0742 113.09 34.3318 111.822 34.3318C108.704 34.3318 107.123 32.7467 107.123 29.6226V21.8871H105.422C105.389 21.8872 105.355 21.8807 105.324 21.868C105.293 21.8552 105.265 21.8364 105.241 21.8127C105.217 21.789 105.198 21.7608 105.185 21.7298C105.172 21.6987 105.166 21.6654 105.165 21.6317V18.6448C105.165 18.5031 105.281 18.3894 105.422 18.3894H107.123V14.4744C107.123 14.3349 107.239 14.2213 107.382 14.2213H110.916C111.06 14.2213 111.175 14.3349 111.175 14.4744V18.3894H115.065C115.207 18.3894 115.322 18.5031 115.322 18.6448V21.6317C115.322 21.6655 115.316 21.6989 115.302 21.73C115.289 21.7612 115.27 21.7894 115.246 21.8131C115.222 21.8369 115.194 21.8556 115.163 21.8683C115.132 21.881 115.098 21.8874 115.065 21.8871H111.175ZM96.365 34.4173C91.6335 34.4173 87.9268 30.8477 87.9268 26.2892C87.9268 21.6801 91.6593 18.0711 96.4233 18.0711C101.172 18.0711 104.891 21.6553 104.891 26.2307C104.891 30.8218 101.147 34.4173 96.365 34.4173ZM96.365 21.6283C93.8221 21.6283 91.9788 23.5633 91.9788 26.2307C91.9788 28.8857 93.8894 30.8904 96.4233 30.8904C98.9819 30.8904 100.839 28.9554 100.839 26.2892C100.839 23.6308 98.9158 21.6283 96.365 21.6283ZM79.3787 34.3892C77.3885 34.3892 75.7549 33.6613 74.4083 32.1741V38.4144C74.408 38.4482 74.4011 38.4815 74.3879 38.5125C74.3747 38.5435 74.3555 38.5716 74.3314 38.5952C74.3073 38.6187 74.2788 38.6372 74.2476 38.6496C74.2163 38.6621 74.1829 38.6682 74.1493 38.6676H70.6153C70.5816 38.6682 70.5483 38.6621 70.517 38.6496C70.4857 38.6372 70.4573 38.6187 70.4332 38.5952C70.4091 38.5716 70.3899 38.5435 70.3767 38.5125C70.3635 38.4815 70.3566 38.4482 70.3563 38.4144V18.6448C70.3563 18.5031 70.4717 18.3894 70.6153 18.3894H74.1493C74.2928 18.3894 74.4083 18.5031 74.4083 18.6448V20.4223C75.7549 18.8428 77.3885 18.0711 79.3787 18.0711C83.0787 18.0711 86.8246 20.8723 86.8246 26.2307C86.8246 31.5868 83.0787 34.3892 79.3787 34.3892ZM78.5613 21.6002C76.1428 21.6002 74.3198 23.5892 74.3198 26.2307C74.3198 28.8711 76.1428 30.8612 78.5613 30.8612C81.0055 30.8612 82.7132 28.9566 82.7132 26.2307C82.7132 23.5464 80.9663 21.6002 78.5613 21.6002ZM62.214 21.9017C67.0263 23.0514 68.9873 24.8402 68.9873 28.0689C68.9873 31.8894 66.0172 34.3599 61.4247 34.3599C58.2201 34.3764 55.122 33.2068 52.723 31.0749C52.6979 31.0538 52.6773 31.0278 52.6623 30.9985C52.6474 30.9693 52.6384 30.9373 52.6359 30.9045C52.6334 30.8718 52.6374 30.8388 52.6477 30.8076C52.6581 30.7764 52.6745 30.7476 52.696 30.7228L54.8577 28.1927C54.8799 28.1667 54.907 28.1454 54.9374 28.13C54.9678 28.1145 55.0009 28.1053 55.0349 28.1027C55.1036 28.0979 55.1717 28.1192 55.2255 28.1623C57.3289 29.9544 59.208 30.7172 61.5121 30.7172C63.5875 30.7172 64.8758 29.8363 64.8758 28.4143C64.8758 27.1318 64.2389 26.4163 60.4593 25.5591C56.0227 24.5027 53.454 23.1358 53.454 19.2737C53.454 15.6726 56.4319 13.1571 60.6936 13.1571C63.592 13.1571 66.0743 14.0019 68.2753 15.7412C68.3829 15.8256 68.4042 15.9774 68.3257 16.0866L66.3984 18.7607C66.3572 18.8169 66.2955 18.8545 66.2268 18.8653C66.158 18.8757 66.0879 18.8583 66.0317 18.8169C64.1817 17.4602 62.4158 16.8009 60.6354 16.8009C58.7988 16.8009 57.5644 17.6683 57.5644 18.9598C57.5644 20.3244 58.2662 20.9758 62.214 21.9017ZM45.6806 23.9976C45.6638 24.2462 45.6481 24.4937 45.6234 24.7389C45.6089 24.8852 45.5876 25.0292 45.5707 25.1732C45.5438 25.3948 45.518 25.6153 45.4855 25.8336C45.462 25.9866 45.434 26.1384 45.407 26.2903C45.3712 26.4984 45.3364 26.7066 45.2949 26.9124C45.2635 27.0677 45.2276 27.2207 45.1929 27.3748C45.148 27.5751 45.1032 27.7742 45.0527 27.9722C45.0135 28.1274 44.9698 28.2804 44.9272 28.4346C44.8733 28.6281 44.8195 28.8216 44.7601 29.0139C44.655 29.3569 44.5413 29.6971 44.4193 30.0343C44.2426 30.5198 44.05 30.9993 43.8418 31.4721C43.6967 31.7962 43.5456 32.1176 43.3889 32.4362C43.2992 32.6151 43.2061 32.7906 43.113 32.9661C43.039 33.1033 42.9662 33.2394 42.8899 33.3756C42.7908 33.5504 42.6895 33.7241 42.5861 33.8964C42.5076 34.0269 42.4302 34.1574 42.3495 34.2868C42.2407 34.4612 42.1275 34.6322 42.0131 34.8032C41.9313 34.9258 41.8517 35.0496 41.7676 35.1699C41.6465 35.3454 41.5198 35.5164 41.3931 35.6886C41.3101 35.8011 41.2305 35.9136 41.1453 36.0249C41.0063 36.2072 40.8617 36.3838 40.7159 36.5616C40.6385 36.6572 40.5634 36.7539 40.4849 36.8484C40.3067 37.0599 40.1217 37.2658 39.9367 37.4717C39.8851 37.5268 39.838 37.5853 39.7864 37.6404C39.5453 37.9003 39.2998 38.1546 39.0464 38.4032C39.0016 38.4482 38.9522 38.4909 38.9063 38.5359C38.7 38.7369 38.4899 38.9338 38.2761 39.1266C38.1853 39.2087 38.0911 39.2852 38.0003 39.3651C37.8254 39.5169 37.6516 39.6688 37.4722 39.8151C37.3635 39.9039 37.2525 39.9883 37.1426 40.0749C36.9744 40.2066 36.8074 40.3382 36.6358 40.4664C36.5158 40.5553 36.3936 40.6397 36.2725 40.7263L35.8924 40.9929C35.9283 40.9671 35.9676 40.9457 36.0046 40.9209C35.962 40.9502 35.9182 40.9749 35.8756 41.0042C35.8397 41.0289 35.805 41.0548 35.7691 41.0784C35.6402 41.1651 35.5101 41.2483 35.38 41.3316C35.1587 41.4748 34.9348 41.6139 34.7084 41.7489L34.63 41.7939C34.6468 41.7849 34.6647 41.7759 34.6804 41.7658L34.4461 41.9019C34.2801 41.9987 34.1142 42.0932 33.946 42.1854L33.7251 42.3024C33.5962 42.3711 33.465 42.4386 33.3338 42.5049L33.2654 42.5387C33.1645 42.5893 33.0659 42.6411 32.9638 42.6906C32.827 42.7558 32.6903 42.8211 32.5512 42.8852L32.4391 42.9347C32.3158 42.9909 32.1924 43.0461 32.068 43.1001L32.0142 43.1237C31.9054 43.1709 31.7944 43.2159 31.6845 43.2621C31.493 43.3416 31.3002 43.4177 31.106 43.4904C30.9748 43.5399 30.8447 43.5883 30.7136 43.6356L30.5443 43.6974C30.3996 43.7481 30.2527 43.7964 30.1059 43.8437C29.9859 43.8831 29.8659 43.9224 29.7448 43.9596L29.6966 43.9742C29.5666 44.0147 29.4365 44.0529 29.3053 44.0901L28.9308 44.1958C28.7705 44.2386 28.6113 44.2824 28.4498 44.3229L28.368 44.3409L28.1662 44.3904C28.202 44.3826 28.2357 44.3713 28.2716 44.3634L28.0384 44.4163C28.0798 44.4062 28.1236 44.4006 28.1662 44.3904C28.0675 44.4141 27.9677 44.4321 27.869 44.4546L27.8545 44.4579C27.6941 44.4928 27.5349 44.5299 27.3735 44.5614C27.2064 44.5941 27.0382 44.6222 26.87 44.6503C26.7714 44.6672 26.6738 44.6886 26.5752 44.7043C26.6211 44.6964 26.666 44.6852 26.712 44.6773L26.4687 44.7178C26.5045 44.7122 26.5404 44.7099 26.5752 44.7043L26.4104 44.7279L26.278 44.7504C26.0549 44.7831 25.8296 44.8078 25.6042 44.8348C25.4584 44.8517 25.3127 44.8731 25.1647 44.8866L25.1311 44.8911H25.1097C25.0492 44.8967 24.9864 44.8989 24.9259 44.9046C24.7868 44.9169 24.6478 44.9248 24.5088 44.9349C24.0367 44.9687 23.5614 44.9901 23.0815 44.9946C23.0389 44.9946 22.9985 45.0002 22.957 45.0002H22.7855C22.7451 45.0002 22.707 44.9957 22.6666 44.9946C22.1758 44.9893 21.6852 44.9686 21.1956 44.9327C21.0622 44.9226 20.9276 44.9147 20.7942 44.9034C20.7404 44.8978 20.6854 44.8967 20.6305 44.8911H20.6103C20.211 44.8503 19.8128 44.7985 19.4162 44.7358C19.4734 44.7448 19.5317 44.7493 19.5889 44.7572C19.4465 44.7358 19.3007 44.7234 19.1595 44.7009L18.9577 44.6649C19.0115 44.6739 19.0642 44.6886 19.118 44.6976C19.0216 44.6818 18.9274 44.6593 18.831 44.6424L18.7973 44.6368C18.7379 44.6267 18.6807 44.6121 18.6224 44.6019C18.2427 44.534 17.8648 44.4567 17.4889 44.3702L17.5965 44.3916L17.4194 44.3511L17.4889 44.3702C17.3263 44.3319 17.1682 44.2836 17.0067 44.2408L17.0325 44.2476C17.0157 44.2442 17 44.2386 16.9832 44.2341L17.0067 44.2408C16.6805 44.1564 16.3542 44.0721 16.0335 43.9742L15.9932 43.9629C15.9494 43.9494 15.9068 43.9337 15.8631 43.9191L15.8429 43.9123C15.6624 43.8549 15.4853 43.7886 15.3059 43.7267L15.5391 43.8066C15.4157 43.7649 15.2935 43.7211 15.1713 43.6772L15.3059 43.7267C15.0312 43.6322 14.7565 43.5377 14.4874 43.4331L14.3517 43.3802C14.3327 43.3723 14.3147 43.3633 14.2957 43.3566C14.1112 43.282 13.9277 43.2051 13.7451 43.1259C13.8651 43.1777 13.9862 43.2261 14.1062 43.2756C13.9279 43.2024 13.7507 43.1248 13.5747 43.0483C13.6319 43.0731 13.688 43.1012 13.7451 43.1259C13.5568 43.0449 13.3662 42.9662 13.18 42.8796L13.1397 42.8627C13.115 42.8514 13.0892 42.8413 13.0646 42.8289C12.976 42.7884 12.8919 42.7389 12.8044 42.6973C12.625 42.6096 12.4457 42.5241 12.2685 42.4329C12.4199 42.5106 12.5746 42.5826 12.7282 42.6579C12.5083 42.5503 12.29 42.4393 12.0734 42.3249C12.1396 42.3598 12.2024 42.3981 12.2685 42.4329C12.1194 42.3553 11.9714 42.2788 11.8245 42.1989L11.7707 42.1708C11.7157 42.1416 11.6619 42.1089 11.6081 42.0786C11.5375 42.0403 11.4713 41.9964 11.4018 41.9559L11.3424 41.9222L11.3727 41.9391C11.1294 41.7996 10.8894 41.6578 10.6528 41.5104C10.7235 41.5543 10.7907 41.6038 10.8625 41.6477C10.747 41.5779 10.6349 41.5037 10.5217 41.4328L10.5116 41.4261L10.3389 41.3169C10.2514 41.2607 10.1685 41.1988 10.0821 41.1414C9.89714 41.0188 9.70765 40.9029 9.52602 40.7747C9.66168 40.8703 9.80632 40.9547 9.94423 41.0469C9.70205 40.8849 9.45762 40.7263 9.22217 40.5542L9.2715 40.5913C9.25468 40.5801 9.23899 40.5666 9.22217 40.5542C9.00241 40.3922 8.78826 40.2234 8.57411 40.0547L8.56402 40.0468L8.56178 40.0457C8.46759 39.9703 8.37117 39.8983 8.27699 39.8218L8.27587 39.8207L8.23887 39.7892C7.97874 39.5754 7.72087 39.3572 7.47084 39.1322L7.45065 39.1153L7.43496 39.1007C7.34302 39.0186 7.25781 38.9319 7.16811 38.8476C6.99096 38.6833 6.81381 38.5191 6.64226 38.3492L6.62096 38.3289C6.55032 38.2592 6.48305 38.1861 6.41353 38.1152C6.46959 38.1726 6.52229 38.2333 6.57947 38.2896C6.52229 38.2322 6.46847 38.1714 6.41129 38.1129L6.31935 38.0162C6.1635 37.8542 6.00653 37.6944 5.85517 37.5279L5.85293 37.5246C5.76659 37.4301 5.6825 37.3333 5.59841 37.2377L5.53338 37.1623C5.30506 36.9008 5.08227 36.6345 4.86514 36.3636C4.84271 36.3366 4.82141 36.3073 4.80011 36.2792C4.58919 36.0139 4.38433 35.7438 4.18568 35.4692C4.16102 35.4343 4.13859 35.3983 4.11393 35.3646C3.98792 35.1865 3.8642 35.0069 3.74281 34.8257C3.68114 34.7334 3.61723 34.6412 3.55668 34.5467C3.52865 34.5039 3.50399 34.4601 3.47708 34.4173C3.36293 34.2383 3.25154 34.0575 3.14296 33.8751C3.1295 33.8503 3.11381 33.8267 3.09923 33.8031C3.05775 33.7344 3.01514 33.6669 2.97478 33.5972C2.9445 33.5454 2.91759 33.4914 2.88844 33.4386C2.78341 33.2518 2.681 33.0635 2.58123 32.8738C2.53302 32.7849 2.48256 32.6983 2.43659 32.6083C2.40744 32.5521 2.38165 32.4947 2.35362 32.4384C2.25425 32.2392 2.15856 32.0382 2.06659 31.8354C2.02959 31.7578 1.99035 31.6802 1.95447 31.6014L1.89617 31.4653C1.7919 31.2313 1.69435 30.9939 1.59905 30.7554L1.52056 30.5653L1.48805 30.4764C1.37744 30.1889 1.27314 29.899 1.17523 29.6068L1.13711 29.4988L1.1259 29.4639C0.848677 28.6282 0.621783 27.7766 0.446442 26.9136L0.437472 26.8686C0.419533 26.7797 0.4072 26.6897 0.390381 26.6019C0.340995 26.347 0.296139 26.0912 0.255836 25.8347L0.239018 25.7357C0.221078 25.6097 0.209866 25.4814 0.194169 25.3543C0.162888 25.1238 0.135601 24.8928 0.112321 24.6613C0.110078 24.6388 0.105594 24.6163 0.104472 24.5927C0.101109 24.5623 0.10223 24.5308 0.0999875 24.4993C0.0382155 23.8362 0.00641523 23.1707 0.00468445 22.5047C0.00468445 22.2156 0.0158966 21.9276 0.0271087 21.6407C0.033836 21.4776 0.0405632 21.3144 0.0495329 21.1513C0.0629875 20.9342 0.0809269 20.7193 0.0999875 20.5044C0.0876541 20.6349 0.070836 20.7654 0.0618663 20.8971C0.070836 20.7643 0.0887754 20.6338 0.0999875 20.5011C0.114563 20.3391 0.129139 20.1782 0.147078 20.0173C0.171745 19.8036 0.199775 19.5898 0.230048 19.3772C0.252472 19.2174 0.274897 19.0588 0.300684 18.9013V18.9002C0.335442 18.6898 0.374684 18.4806 0.415048 18.2724V18.2702C0.445321 18.1138 0.475594 17.9574 0.50923 17.8022V17.8011C0.554875 17.5941 0.603466 17.3879 0.654987 17.1823C0.691987 17.0293 0.730109 16.8752 0.771594 16.7233V16.7211C0.826533 16.5186 0.884836 16.3194 0.945381 16.1203L0.946503 16.1158C0.991351 15.9651 1.0362 15.8132 1.08441 15.6647L1.08553 15.6613C1.14944 15.4644 1.21784 15.2698 1.28735 15.0752L1.28959 15.0696C1.34229 14.9222 1.39387 14.7748 1.44993 14.6286L1.45105 14.6252C1.52393 14.4328 1.60129 14.2438 1.67865 14.0548L1.68202 14.0469C1.74144 13.9029 1.80087 13.7578 1.86253 13.6149L1.86478 13.6116C1.94875 13.423 2.0351 13.2355 2.12378 13.0491C2.18993 12.9084 2.25496 12.7667 2.32447 12.6283L2.32671 12.6238C2.41641 12.4427 2.51059 12.2649 2.6059 12.0872L2.6115 12.0759C2.68438 11.9398 2.75614 11.8014 2.83238 11.6664L2.83462 11.6619C2.93217 11.4876 3.03532 11.3154 3.13735 11.1433L3.1452 11.1309C3.22481 10.9982 3.30329 10.8643 3.38514 10.7327L3.3885 10.7282C3.4939 10.5594 3.60378 10.3941 3.71365 10.2287L3.72262 10.2141C3.80896 10.0858 3.89305 9.95644 3.98162 9.82932L3.98499 9.82369C4.09711 9.66169 4.21484 9.50307 4.33144 9.34332L4.34378 9.32757C4.43571 9.20269 4.52541 9.07782 4.61959 8.95519L4.62408 8.94956C4.74293 8.79431 4.86738 8.64244 4.99184 8.48944L5.00529 8.47257C5.10284 8.35219 5.19926 8.23182 5.29905 8.11369C5.3002 8.11156 5.30171 8.10966 5.30353 8.10806C5.42911 7.95956 5.56029 7.81332 5.69035 7.66819L5.70717 7.65019C5.81032 7.53432 5.91123 7.41844 6.01662 7.30481L6.02223 7.30031C6.15453 7.15744 6.29244 7.01907 6.42811 6.88069L6.44717 6.86157C6.55593 6.75132 6.66244 6.63994 6.77344 6.53194C6.77526 6.53035 6.77678 6.52844 6.77793 6.52632L6.81829 6.48582L6.78017 6.52519C6.90014 6.40819 7.02459 6.29569 7.14681 6.18094C7.0459 6.27544 6.94162 6.36657 6.84184 6.46219C6.95956 6.34857 7.0829 6.23944 7.20287 6.12807L7.22417 6.10894C7.33853 6.00319 7.45065 5.89632 7.56614 5.79394L7.57174 5.78944C7.6962 5.67806 7.82626 5.57232 7.95408 5.46319C7.84644 5.55432 7.73656 5.64094 7.63117 5.73432C7.75675 5.62406 7.88681 5.51944 8.0135 5.41257C8.0215 5.40554 8.02972 5.39879 8.03817 5.39232C8.1559 5.29332 8.2725 5.19207 8.39247 5.09531L8.39808 5.09082L8.45638 5.04244L8.3992 5.08969C8.52926 4.98507 8.66268 4.88494 8.79499 4.78369C8.68287 4.87031 8.56738 4.95357 8.45638 5.04244C8.58756 4.93669 8.72435 4.83657 8.8589 4.73419L8.88468 4.71394C9.00802 4.62057 9.12799 4.52606 9.25244 4.43494L9.25693 4.43156L9.31411 4.38881L9.26029 4.42932C9.39596 4.33032 9.53387 4.23694 9.67065 4.14131C9.55293 4.22457 9.43072 4.30332 9.31411 4.38881C9.45202 4.28757 9.59553 4.19306 9.73681 4.09631L9.76596 4.07606C9.89153 3.98831 10.016 3.89944 10.1438 3.81506L10.1483 3.81169L10.2032 3.77456L10.1539 3.80831C10.294 3.71606 10.4387 3.62944 10.58 3.53944C10.4555 3.61819 10.3266 3.69356 10.2032 3.77456C10.349 3.67894 10.4981 3.59007 10.6461 3.49781L10.6786 3.47869C10.8076 3.39769 10.9354 3.31444 11.0666 3.23681L11.071 3.23457C11.0882 3.22304 11.1058 3.21215 11.1237 3.20194L11.0789 3.23006C11.2247 3.14344 11.3738 3.06244 11.5218 2.97919C11.3895 3.05344 11.2538 3.12431 11.1237 3.20194C11.2751 3.11194 11.4321 3.02869 11.5857 2.94319L11.6216 2.92294C11.7539 2.84981 11.8839 2.77331 12.0174 2.70131C12.019 2.70101 12.0206 2.70023 12.0218 2.69906L12.0723 2.67206L12.0319 2.69456C12.1844 2.61356 12.3414 2.53819 12.495 2.46056C12.3548 2.53144 12.2113 2.59781 12.0723 2.67206C12.2315 2.58769 12.3941 2.51119 12.5544 2.43019C12.5678 2.4245 12.5809 2.41811 12.5937 2.41106C12.7282 2.34469 12.8605 2.27494 12.9973 2.21081L13.0007 2.20856L13.0489 2.18494L13.0141 2.20294C13.1744 2.12756 13.3381 2.05781 13.5007 1.98581C13.3505 2.05331 13.198 2.11519 13.0489 2.18494C13.2148 2.10732 13.3841 2.03756 13.5523 1.96332L13.5949 1.94419C13.7306 1.88456 13.8651 1.82157 14.003 1.76532L14.0064 1.76307C14.0215 1.75717 14.0365 1.75079 14.0512 1.74394L14.0221 1.75744C14.1925 1.68657 14.3663 1.62356 14.539 1.55719C14.3764 1.61906 14.2127 1.67869 14.0512 1.74394C14.2239 1.67306 14.401 1.61006 14.576 1.54256L14.6242 1.52456C14.761 1.47169 14.8955 1.41656 15.0345 1.36594H15.0368C15.0507 1.36002 15.0649 1.35476 15.0794 1.35019L15.0547 1.35919C15.2397 1.29281 15.4292 1.23432 15.6164 1.17244C15.437 1.23207 15.2565 1.28719 15.0794 1.35019C15.2599 1.28607 15.4438 1.22982 15.6254 1.16906L15.6815 1.15106C15.8183 1.10607 15.9517 1.05769 16.0885 1.01607H16.0907L16.13 1.00369L16.1109 1.01044C16.306 0.950815 16.5044 0.899065 16.7007 0.845065L16.6704 0.854065L16.7489 0.831565L16.8173 0.81244C16.9339 0.78094 17.0482 0.746065 17.166 0.71569H17.1671L17.2018 0.70669L17.1906 0.710065C17.3924 0.65944 17.5976 0.61669 17.8017 0.57169L17.7299 0.58744C17.8331 0.563815 17.9351 0.539065 18.0394 0.51769L18.138 0.49519C18.1807 0.48619 18.2221 0.47494 18.2636 0.467065L18.2647 0.46594L18.295 0.46144L18.2905 0.462565C18.5013 0.419815 18.7155 0.386065 18.9296 0.350065L18.8153 0.36919C19.0059 0.336565 19.1942 0.298315 19.3848 0.27019L19.386 0.269065L19.405 0.266815H19.4095C19.5799 0.24094 19.7537 0.224065 19.9253 0.201565C19.8098 0.21619 19.692 0.22969 19.5766 0.24544C19.747 0.221815 19.9197 0.201565 20.0912 0.181315L19.9253 0.201565C20.1237 0.176815 20.321 0.147565 20.5217 0.127315H20.5229L20.5464 0.125065H20.5475C20.7168 0.10819 20.8884 0.0991899 21.0588 0.0868149L20.8917 0.0991899C21.033 0.0879399 21.1732 0.0766899 21.3144 0.0676899L21.0588 0.0868149C21.264 0.0710649 21.468 0.0508149 21.6744 0.0406899H21.6755L21.7013 0.0395649C21.8717 0.0305649 22.0444 0.0305649 22.2148 0.0260649L22.1195 0.0283149C22.3695 0.0204399 22.6184 0.0103149 22.8707 0.0103149C35.5 0.0103149 45.7367 10.0802 45.7367 22.5047C45.7367 22.8816 45.7255 23.2562 45.7075 23.6286C45.7008 23.7523 45.6885 23.8749 45.6806 23.9976ZM9.6045 29.7002C9.77829 30.4539 10.5441 30.9264 11.311 30.7532C19.2694 28.9644 26.028 29.6934 31.3964 32.9222C32.0691 33.3249 32.947 33.1191 33.3574 32.4542C33.4547 32.2972 33.5198 32.1223 33.5487 31.9397C33.5776 31.7571 33.5697 31.5706 33.5256 31.3911C33.4815 31.2116 33.4021 31.0427 33.2919 30.8945C33.1817 30.7463 33.0431 30.6218 32.8842 30.5282C26.8566 26.9034 19.386 26.0608 10.6753 28.0206C10.4942 28.0588 10.3226 28.1328 10.1704 28.2383C10.0182 28.3438 9.88842 28.4786 9.78874 28.635C9.68905 28.7914 9.62142 28.9661 9.58979 29.149C9.55815 29.3319 9.56316 29.5193 9.6045 29.7002ZM8.69184 23.1178C8.97887 24.0437 9.9745 24.5657 10.9186 24.2856C18.1885 22.1154 27.5585 23.1909 33.7027 26.9079C34.5403 27.4131 35.639 27.1554 36.1548 26.3319C36.277 26.1357 36.3588 25.9169 36.3956 25.6885C36.4323 25.4601 36.4231 25.2266 36.3685 25.0017C36.314 24.7769 36.2152 24.5653 36.078 24.3793C35.9408 24.1933 35.7679 24.0368 35.5695 23.9188C28.5104 19.6539 18.1874 18.4513 9.88144 20.9308C9.65948 20.9949 9.45238 21.1025 9.27216 21.2474C9.09193 21.3923 8.94215 21.5717 8.83151 21.7751C8.72086 21.9785 8.65154 22.2019 8.62757 22.4324C8.60359 22.6629 8.62544 22.8959 8.69184 23.1178ZM38.5789 16.3329C30.0935 11.3773 16.667 10.9116 8.58981 13.3247C8.32341 13.4012 8.07483 13.5301 7.85855 13.704C7.64227 13.8778 7.46259 14.093 7.32998 14.3371C7.19737 14.5813 7.11447 14.8494 7.0861 15.126C7.05774 15.4026 7.08447 15.6821 7.16474 15.9482C7.50671 17.0608 8.70081 17.6874 9.83211 17.3499C16.8677 15.2496 29.025 15.6467 36.397 19.9521C36.8845 20.2376 37.464 20.3203 38.0115 20.1826C38.559 20.0449 39.0311 19.6977 39.3267 19.2152C39.4698 18.9776 39.5641 18.7137 39.604 18.439C39.6438 18.1643 39.6284 17.8844 39.5587 17.6158C39.489 17.3471 39.3664 17.0952 39.1981 16.8749C39.0298 16.6546 38.8193 16.4703 38.5789 16.3329ZM22.8101 0.0103149H22.8707C22.6509 0.0103149 22.4334 0.0204399 22.2148 0.0260649C22.4132 0.0204399 22.6106 0.0103149 22.8101 0.0103149ZM120.76 18.3894C120.904 18.3894 121.019 18.5031 121.019 18.6448V33.8154C121.019 33.8839 120.991 33.9493 120.943 33.9973C120.894 34.0454 120.829 34.0722 120.76 34.0719H117.225C117.157 34.0722 117.091 34.0454 117.043 33.9973C116.994 33.9493 116.967 33.8839 116.966 33.8154V18.6448C116.966 18.5031 117.083 18.3894 117.225 18.3894H120.76ZM145.754 29.2569C147.016 29.2569 147.997 30.2672 147.997 31.4934C147.995 32.0918 147.757 32.665 147.335 33.0872C146.912 33.5093 146.34 33.7458 145.743 33.7446C145.449 33.7466 145.157 33.6903 144.885 33.5786C144.613 33.467 144.365 33.3024 144.157 33.0942C143.948 32.8861 143.783 32.6386 143.67 32.3659C143.557 32.0933 143.499 31.801 143.5 31.5058C143.5 30.2784 144.494 29.2569 145.754 29.2569ZM145.743 33.5196C146.009 33.5221 146.273 33.4715 146.519 33.3705C146.765 33.2696 146.989 33.1205 147.177 32.9318C147.365 32.7432 147.513 32.5188 147.614 32.2718C147.715 32.0248 147.765 31.7602 147.762 31.4934C147.766 31.2281 147.716 30.9647 147.616 30.719C147.516 30.4732 147.368 30.25 147.181 30.0624C146.994 29.8748 146.771 29.7266 146.526 29.6265C146.281 29.5264 146.019 29.4765 145.754 29.4797C144.606 29.4797 143.736 30.3898 143.736 31.5058C143.736 32.6218 144.6 33.5196 145.743 33.5196ZM146.798 31.0108C146.798 31.3944 146.575 31.6307 146.251 31.7241L146.886 32.6094H146.351L145.78 31.7961H145.289V32.6094H144.841V30.2616H145.891C146.438 30.2616 146.798 30.5406 146.798 31.0108ZM145.289 30.6632V31.4068H145.873C146.165 31.4068 146.339 31.2651 146.339 31.0344C146.339 30.7937 146.165 30.6632 145.873 30.6632H145.289Z" fill="white"/>
</svg>
